<svg width="16" height="15" viewBox="0 0 16 15" fill="none" xmlns="http://www.w3.org/2000/svg">
<path d="M8 14.8803C7.06103 14.8803 6.18166 14.702 5.36188 14.3455C4.5416 13.9884 3.82798 13.5062 3.22103 12.8987C2.61358 12.2918 2.13133 11.5782 1.77427 10.7579C1.41772 9.93809 1.23944 9.05872 1.23944 8.11975C1.23944 7.18078 1.41772 6.30116 1.77427 5.48088C2.13133 4.6611 2.61358 3.94748 3.22103 3.34003C3.82798 2.73308 4.5416 2.25133 5.36188 1.89477C6.18166 1.53772 7.06103 1.35919 8 1.35919C8.93897 1.35919 9.81859 1.53772 10.6389 1.89477C11.4587 2.25133 12.1723 2.73308 12.7797 3.34003C13.3867 3.94748 13.8687 4.6611 14.2257 5.48088C14.5823 6.30116 14.7606 7.18078 14.7606 8.11975C14.7606 9.05872 14.5823 9.93809 14.2257 10.7579C13.8687 11.5782 13.3867 12.2918 12.7797 12.8987C12.1723 13.5062 11.4587 13.9884 10.6389 14.3455C9.81859 14.702 8.93897 14.8803 8 14.8803ZM10.1033 11.2747L11.1549 10.223L8.75117 7.81928V4.36388H7.24883V8.42022L10.1033 11.2747ZM3.19249 0.119751L4.24413 1.17139L1.05164 4.36388L0 3.31224L3.19249 0.119751ZM12.8075 0.119751L16 3.31224L14.9484 4.36388L11.7559 1.17139L12.8075 0.119751ZM8 13.378C9.46479 13.378 10.7072 12.8677 11.7273 11.8471C12.7479 10.827 13.2582 9.58454 13.2582 8.11975C13.2582 6.65496 12.7479 5.41227 11.7273 4.39168C10.7072 3.37158 9.46479 2.86154 8 2.86154C6.53521 2.86154 5.29277 3.37158 4.27268 4.39168C3.25208 5.41227 2.74178 6.65496 2.74178 8.11975C2.74178 9.58454 3.25208 10.827 4.27268 11.8471C5.29277 12.8677 6.53521 13.378 8 13.378Z" fill="#A180F4"/>
</svg>
