<svg width="17" height="18" viewBox="0 0 17 18" fill="none" xmlns="http://www.w3.org/2000/svg">
<path d="M8.33333 0.666626C3.73333 0.666626 0 4.39996 0 8.99996C0 13.6 3.73333 17.3333 8.33333 17.3333C12.9333 17.3333 16.6667 13.6 16.6667 8.99996C16.6667 4.39996 12.9333 0.666626 8.33333 0.666626ZM8.33333 15.6666C4.65833 15.6666 1.66667 12.675 1.66667 8.99996C1.66667 5.32496 4.65833 2.33329 8.33333 2.33329C12.0083 2.33329 15 5.32496 15 8.99996C15 12.675 12.0083 15.6666 8.33333 15.6666ZM12.1583 5.31663L6.66667 10.8083L4.50833 8.65829L3.33333 9.83329L6.66667 13.1666L13.3333 6.49996L12.1583 5.31663Z" fill="black"/>
</svg>
