<svg width="25" height="25" viewBox="0 0 25 25" fill="none" xmlns="http://www.w3.org/2000/svg">
<path fill-rule="evenodd" clip-rule="evenodd" d="M18.8449 6.19939C18.8458 6.19681 18.8467 6.1942 18.8475 6.19157L18.848 6.19206C18.6021 5.91869 18.3562 5.64541 18.1103 5.37213C17.6185 4.82571 17.1268 4.27929 16.6358 3.73214C16.5733 3.66291 16.5136 3.59054 16.454 3.51825C16.4243 3.48223 16.3946 3.44623 16.3646 3.41064C16.2687 3.42624 11.9544 7.64448 6.85677 12.6286C5.7682 13.6929 4.6439 14.7922 3.51734 15.8929C3.49982 15.9101 3.48066 15.926 3.46143 15.942C3.39898 15.9938 3.33579 16.0463 3.32568 16.1435L3.32606 16.1439C4.15083 17.0451 4.97561 17.9464 5.80081 18.8472C5.82567 18.8745 5.85211 18.8998 5.87864 18.9253C5.88796 18.9342 5.89729 18.9431 5.90657 18.9522C5.90634 18.9553 5.90616 18.9584 5.90603 18.9615C6.08922 19.165 6.27246 19.3685 6.45572 19.5721C7.00397 20.1809 7.55233 20.79 8.09974 21.3994C8.1708 21.4787 8.23935 21.5605 8.3079 21.6422C8.33645 21.6763 8.36501 21.7103 8.39374 21.7442C8.50487 21.7411 8.5665 21.6673 8.62716 21.5947C8.64723 21.5707 8.6672 21.5468 8.68882 21.5257C15.0551 15.3109 21.3514 9.17937 21.4544 9.08134C21.4546 9.08119 21.4547 9.08105 21.4548 9.08093M18.8449 6.19939C18.9559 6.31892 19.0674 6.43785 19.1789 6.55675C19.4282 6.82257 19.6774 7.0883 19.9204 7.36064C20.0902 7.55105 20.2637 7.73789 20.4371 7.92471C20.7862 8.30069 21.1352 8.67661 21.4544 9.08134" fill="#6224FD"/>
<path d="M3.32502 16.1453C4.14993 17.0467 4.97483 17.9481 5.80015 18.849C5.83618 18.8886 5.87596 18.9245 5.91363 18.9616C6.64487 19.7739 7.37654 20.5867 8.10735 21.3995C8.20799 21.5118 8.30362 21.6291 8.40134 21.7443C7.47071 22.0043 6.51319 22.1775 5.56536 22.3804C5.02952 22.4951 4.50729 22.6602 3.95093 22.7037C3.34422 22.036 2.73706 21.3679 2.13035 20.7002C2.25641 19.978 2.46792 19.2872 2.65657 18.5887C2.87752 17.7736 3.04361 16.9365 3.32417 16.1453L3.32502 16.1453Z" fill="white"/>
<path d="M23.911 6.46937C23.8338 6.67815 23.7037 6.87036 23.5569 7.04689C23.3585 7.28576 23.1422 7.5075 22.9198 7.72159C22.4841 8.14167 22.0216 8.53319 21.6113 8.98127C21.5605 9.03653 21.5037 9.06192 21.4269 9.01393C21.3805 8.95431 21.338 8.89191 21.2875 8.83638C19.6553 7.03916 18.0219 5.24228 16.3894 3.44547C16.5512 3.18121 16.8003 3.00768 17.0108 2.79434C17.3871 2.41412 17.7823 2.05376 18.1535 1.66863C18.4394 1.37231 18.8154 1.06817 19.2562 1.0375C19.8533 0.997132 20.3057 1.56296 20.6967 1.99623C21.2799 2.64317 21.8634 3.2897 22.4465 3.93664C22.7335 4.25459 23.0195 4.57247 23.3065 4.89042C23.4879 5.09161 23.7087 5.28905 23.8377 5.53156C24.0213 5.87669 24.0146 6.1881 23.9114 6.46896L23.911 6.46937Z" fill="#9192FF"/>
<path d="M2.13484 20.6977C2.74155 21.3653 3.3487 22.0335 3.95541 22.7011C3.33298 22.8439 2.7101 22.9862 2.05831 23.1358C1.78942 23.1973 1.53067 22.9129 1.60538 22.638C1.78633 21.9753 1.96058 21.3365 2.13525 20.6973L2.13484 20.6977Z" fill="#6224FD"/>
</svg>
