<svg width="25" height="25" viewBox="0 0 25 25" fill="none" xmlns="http://www.w3.org/2000/svg">
<path d="M23.758 10.5021L23.7057 10.487L20.2365 9.4852L19.9324 9.39737L20.0883 9.12187L21.9624 5.81056L21.9625 5.81029C22.1383 5.50063 22.081 5.10635 21.8293 4.86206L23.758 10.5021ZM23.758 10.5021C24.0481 10.6094 24.25 10.8951 24.25 11.2246V13.9847C24.25 14.346 24.0089 14.6528 23.6752 14.7334L23.6751 14.7334L20.2726 15.5563L19.9506 15.6341L20.1138 15.9224L21.9624 19.1875L21.9625 19.1877C22.1388 19.4981 22.0823 19.892 21.8296 20.1356L21.8293 20.1359L19.8707 22.031L19.8707 22.031C19.6282 22.2658 19.2661 22.3058 18.9807 22.1322L23.758 10.5021ZM19.8707 2.96701L21.8291 4.86186L18.9807 2.86578C19.2661 2.69217 19.6282 2.73216 19.8707 2.96695L19.8707 2.96701ZM15.8356 4.79101L18.9802 2.86606L18.9802 22.1319L15.9495 20.2774L15.6533 20.0961L15.5754 20.4345L14.8328 23.6593C14.752 24.01 14.4496 24.25 14.1079 24.25H11.4127C11.0853 24.25 10.7899 24.0254 10.6969 23.6911C10.6969 23.691 10.6969 23.6909 10.6968 23.6908L9.79138 20.4001L9.75629 20.2726L9.63135 20.23C9.63136 20.23 9.62958 20.2293 9.62193 20.2261L9.62056 20.2255C9.61281 20.2222 9.59739 20.2157 9.58004 20.2098L9.46891 20.1718L9.36875 20.2331L6.26336 22.1339C6.26326 22.134 6.26316 22.1341 6.26305 22.1341C5.97758 22.3078 5.61547 22.2679 5.37292 22.033L5.37286 22.033L3.41449 20.1381C3.16263 19.8939 3.10524 19.4995 3.28106 19.1897L3.28119 19.1895L5.10029 15.9767L5.2636 15.6883L4.94141 15.6105L1.32483 14.7375C1.32482 14.7375 1.32482 14.7375 1.32481 14.7375C0.991098 14.6569 0.75 14.35 0.75 13.9887V11.2286C0.75 10.8824 0.975742 10.5819 1.29459 10.489C1.29466 10.4889 1.29473 10.4889 1.2948 10.4889L4.96778 9.42888L5.03119 9.41058L5.0773 9.36337C5.13036 9.30906 5.14258 9.24802 5.14554 9.23286C5.14798 9.22036 5.14911 9.20971 5.14969 9.20206L5.15028 9.19127L5.15039 9.18673L5.15042 9.18464L5.15042 9.18365L5.15042 9.18316L5.15043 9.18292V9.1828C5.15043 9.18274 5.15043 9.18268 4.90043 9.18265L5.15043 9.18268L5.15043 9.11679L5.11797 9.05946L3.27922 5.81252L3.27909 5.8123C3.10287 5.50185 3.15938 5.10795 3.412 4.86438L3.41232 4.86408L5.3709 2.96902L5.37096 2.96896C5.61352 2.73411 5.97567 2.69416 6.26115 2.86792C6.26123 2.86797 6.26131 2.86802 6.2614 2.86807L9.29216 4.72263L9.58835 4.90388L9.66627 4.56549L10.4088 1.34068C10.4896 0.990013 10.792 0.75 11.1337 0.75H13.829C14.1564 0.75 14.4519 0.974763 14.5448 1.30923L15.464 4.64422L15.5523 4.96441L15.8356 4.79101Z" fill="url(#paint0_linear_18_3584)" stroke="url(#paint1_linear_18_3584)" stroke-width="0.5"/>
<path d="M12.1739 16.7273C14.4791 16.7273 16.3478 14.7736 16.3478 12.3636C16.3478 9.95367 14.4791 8 12.1739 8C9.86872 8 8 9.95367 8 12.3636C8 14.7736 9.86872 16.7273 12.1739 16.7273Z" fill="url(#paint2_linear_18_3584)"/>
<defs>
<linearGradient id="paint0_linear_18_3584" x1="24.0649" y1="12.5201" x2="3.56184" y2="21.0143" gradientUnits="userSpaceOnUse">
<stop stop-color="#5E5FFF"/>
<stop offset="1" stop-color="#9494FF"/>
</linearGradient>
<linearGradient id="paint1_linear_18_3584" x1="25.6453" y1="2.3" x2="11.5537" y2="23.8821" gradientUnits="userSpaceOnUse">
<stop stop-color="white"/>
<stop offset="1" stop-color="white" stop-opacity="0.5"/>
</linearGradient>
<linearGradient id="paint2_linear_18_3584" x1="12.1739" y1="8" x2="12.1739" y2="16.7273" gradientUnits="userSpaceOnUse">
<stop stop-color="#494949"/>
<stop offset="0.0001" stop-color="#C9C4FF"/>
<stop offset="1" stop-color="white"/>
</linearGradient>
</defs>
</svg>
