<svg width="15" height="16" viewBox="0 0 15 16" fill="none" xmlns="http://www.w3.org/2000/svg">
<mask id="mask0_1_2959" style="mask-type:alpha" maskUnits="userSpaceOnUse" x="0" y="0" width="15" height="16">
<rect y="0.5" width="15" height="15" fill="#D9D9D9"/>
</mask>
<g mask="url(#mask0_1_2959)">
<path d="M6.84375 10.1534L9.01562 7.98157C9.14062 7.85657 9.29167 7.79407 9.46875 7.79407C9.64583 7.79407 9.79688 7.85657 9.92188 7.98157C10.0469 8.10657 10.1094 8.25761 10.1094 8.43469C10.1094 8.61178 10.0469 8.76282 9.92188 8.88782L7.28125 11.5284C7.15625 11.6534 7.01042 11.7159 6.84375 11.7159C6.67708 11.7159 6.53125 11.6534 6.40625 11.5284L5.07812 10.2003C4.95312 10.0753 4.89063 9.92428 4.89063 9.74719C4.89063 9.57011 4.95312 9.41907 5.07812 9.29407C5.20312 9.16907 5.35417 9.10657 5.53125 9.10657C5.70833 9.10657 5.85938 9.16907 5.98438 9.29407L6.84375 10.1534ZM3.125 14.2472C2.78125 14.2472 2.48698 14.1248 2.24219 13.88C1.9974 13.6352 1.875 13.3409 1.875 12.9972V4.24719C1.875 3.90344 1.9974 3.60917 2.24219 3.36438C2.48698 3.11959 2.78125 2.99719 3.125 2.99719H3.75V2.37219C3.75 2.19511 3.8099 2.04667 3.92969 1.92688C4.04948 1.80709 4.19792 1.74719 4.375 1.74719C4.55208 1.74719 4.70052 1.80709 4.82031 1.92688C4.9401 2.04667 5 2.19511 5 2.37219V2.99719H10V2.37219C10 2.19511 10.0599 2.04667 10.1797 1.92688C10.2995 1.80709 10.4479 1.74719 10.625 1.74719C10.8021 1.74719 10.9505 1.80709 11.0703 1.92688C11.1901 2.04667 11.25 2.19511 11.25 2.37219V2.99719H11.875C12.2188 2.99719 12.513 3.11959 12.7578 3.36438C13.0026 3.60917 13.125 3.90344 13.125 4.24719V12.9972C13.125 13.3409 13.0026 13.6352 12.7578 13.88C12.513 14.1248 12.2188 14.2472 11.875 14.2472H3.125ZM3.125 12.9972H11.875V6.74719H3.125V12.9972Z" fill="#BEB4BF"/>
</g>
</svg>
