<svg width="12" height="14" viewBox="0 0 12 14" fill="none" xmlns="http://www.w3.org/2000/svg">
<path d="M2.45 14C1.77333 14 1.19583 13.7608 0.7175 13.2825C0.239167 12.8042 0 12.2267 0 11.55V2.45C0 1.77333 0.239167 1.19583 0.7175 0.7175C1.19583 0.239167 1.77333 0 2.45 0H11.2V10.5C10.9083 10.5 10.6604 10.6021 10.4563 10.8063C10.2521 11.0104 10.15 11.2583 10.15 11.55C10.15 11.8417 10.2521 12.0896 10.4563 12.2938C10.6604 12.4979 10.9083 12.6 11.2 12.6V14H2.45ZM1.4 9.3275C1.56333 9.24583 1.7325 9.1875 1.9075 9.1525C2.0825 9.1175 2.26333 9.1 2.45 9.1H2.8V1.4H2.45C2.15833 1.4 1.91042 1.50208 1.70625 1.70625C1.50208 1.91042 1.4 2.15833 1.4 2.45V9.3275ZM4.2 9.1H9.8V1.4H4.2V9.1ZM2.45 12.6H8.9775C8.9075 12.4367 8.85208 12.2704 8.81125 12.1013C8.77042 11.9321 8.75 11.7483 8.75 11.55C8.75 11.3633 8.7675 11.1825 8.8025 11.0075C8.8375 10.8325 8.89583 10.6633 8.9775 10.5H2.45C2.14667 10.5 1.89583 10.6021 1.6975 10.8063C1.49917 11.0104 1.4 11.2583 1.4 11.55C1.4 11.8533 1.49917 12.1042 1.6975 12.3025C1.89583 12.5008 2.14667 12.6 2.45 12.6Z" fill="#252525"/>
</svg>
