<svg width="18" height="18" viewBox="0 0 18 18" fill="none" xmlns="http://www.w3.org/2000/svg">
<path fill-rule="evenodd" clip-rule="evenodd" d="M8.15625 2.8125C5.20498 2.8125 2.8125 5.20498 2.8125 8.15625C2.8125 11.1075 5.20498 13.5 8.15625 13.5C11.1075 13.5 13.5 11.1075 13.5 8.15625C13.5 5.20498 11.1075 2.8125 8.15625 2.8125ZM1.6875 8.15625C1.6875 4.58366 4.58366 1.6875 8.15625 1.6875C11.7288 1.6875 14.625 4.58366 14.625 8.15625C14.625 11.7288 11.7288 14.625 8.15625 14.625C4.58366 14.625 1.6875 11.7288 1.6875 8.15625Z" fill="#41364A"/>
<path fill-rule="evenodd" clip-rule="evenodd" d="M11.9353 11.935C12.1549 11.7153 12.5111 11.7153 12.7308 11.935L16.1479 15.3522C16.3676 15.5719 16.3676 15.928 16.1479 16.1477C15.9283 16.3674 15.5721 16.3674 15.3524 16.1477L11.9353 12.7305C11.7156 12.5108 11.7156 12.1547 11.9353 11.935Z" fill="#41364A"/>
</svg>
