<svg width="25" height="25" viewBox="0 0 25 25" fill="none" xmlns="http://www.w3.org/2000/svg">
<circle cx="12.5" cy="12.5" r="11.79" fill="#9192FF" stroke="url(#paint0_linear_18_3591)" stroke-width="0.42"/>
<circle cx="12.7359" cy="12.7369" r="8.4" fill="white"/>
<circle cx="12.7353" cy="12.7407" r="5.04" fill="#6224FD"/>
<path d="M19.6865 2.90534L19.0325 0.771242C18.9733 0.577924 18.718 0.533614 18.6011 0.69619L16.6232 3.44553C16.5552 3.54013 16.5295 3.65875 16.5523 3.77302L17.0906 6.4695C17.1117 6.60469 17.2404 6.69722 17.3753 6.67429L20.103 6.32731C20.2186 6.3126 20.3229 6.25053 20.3909 6.15593L22.3687 3.40659C22.4857 3.24402 22.3624 3.01625 22.1604 3.02143L19.9288 3.07992C19.8183 3.08285 19.7189 3.01111 19.6865 2.90534Z" fill="#2F00A4"/>
<path d="M17.4532 6.22856C17.268 6.09527 17.0204 6.12135 16.9015 6.28669L12.3269 12.6457C12.208 12.811 12.262 13.054 12.4472 13.1873C12.6325 13.3206 12.8801 13.2945 12.999 13.1292L17.5736 6.77017C17.6925 6.60484 17.6385 6.36185 17.4532 6.22856Z" fill="#2F00A4"/>
<defs>
<linearGradient id="paint0_linear_18_3591" x1="24.5" y1="14.1" x2="2.9" y2="19.7" gradientUnits="userSpaceOnUse">
<stop stop-color="white"/>
<stop offset="1" stop-color="white" stop-opacity="0"/>
</linearGradient>
</defs>
</svg>
