<svg width="15" height="11" viewBox="0 0 15 11" fill="none" xmlns="http://www.w3.org/2000/svg">
<mask id="path-1-inside-1_326_6278" fill="white">
<path d="M5.25 7.0625C3.495 7.0625 0 7.94 0 9.6875V11H10.5V9.6875C10.5 7.94 7.005 7.0625 5.25 7.0625ZM1.755 9.5C2.385 9.065 3.9075 8.5625 5.25 8.5625C6.5925 8.5625 8.115 9.065 8.745 9.5H1.755ZM5.25 5.75C6.6975 5.75 7.875 4.5725 7.875 3.125C7.875 1.6775 6.6975 0.5 5.25 0.5C3.8025 0.5 2.625 1.6775 2.625 3.125C2.625 4.5725 3.8025 5.75 5.25 5.75ZM5.25 2C5.8725 2 6.375 2.5025 6.375 3.125C6.375 3.7475 5.8725 4.25 5.25 4.25C4.6275 4.25 4.125 3.7475 4.125 3.125C4.125 2.5025 4.6275 2 5.25 2ZM10.53 7.1075C11.4 7.7375 12 8.5775 12 9.6875V11H15V9.6875C15 8.1725 12.375 7.31 10.53 7.1075ZM9.75 5.75C11.1975 5.75 12.375 4.5725 12.375 3.125C12.375 1.6775 11.1975 0.5 9.75 0.5C9.345 0.5 8.97 0.5975 8.625 0.7625C9.0975 1.43 9.375 2.2475 9.375 3.125C9.375 4.0025 9.0975 4.82 8.625 5.4875C8.97 5.6525 9.345 5.75 9.75 5.75Z"/>
</mask>
<path d="M5.25 7.0625C3.495 7.0625 0 7.94 0 9.6875V11H10.5V9.6875C10.5 7.94 7.005 7.0625 5.25 7.0625ZM1.755 9.5C2.385 9.065 3.9075 8.5625 5.25 8.5625C6.5925 8.5625 8.115 9.065 8.745 9.5H1.755ZM5.25 5.75C6.6975 5.75 7.875 4.5725 7.875 3.125C7.875 1.6775 6.6975 0.5 5.25 0.5C3.8025 0.5 2.625 1.6775 2.625 3.125C2.625 4.5725 3.8025 5.75 5.25 5.75ZM5.25 2C5.8725 2 6.375 2.5025 6.375 3.125C6.375 3.7475 5.8725 4.25 5.25 4.25C4.6275 4.25 4.125 3.7475 4.125 3.125C4.125 2.5025 4.6275 2 5.25 2ZM10.53 7.1075C11.4 7.7375 12 8.5775 12 9.6875V11H15V9.6875C15 8.1725 12.375 7.31 10.53 7.1075ZM9.75 5.75C11.1975 5.75 12.375 4.5725 12.375 3.125C12.375 1.6775 11.1975 0.5 9.75 0.5C9.345 0.5 8.97 0.5975 8.625 0.7625C9.0975 1.43 9.375 2.2475 9.375 3.125C9.375 4.0025 9.0975 4.82 8.625 5.4875C8.97 5.6525 9.345 5.75 9.75 5.75Z" fill="#A180F4"/>
<path d="M0 11H-4V15H0V11ZM10.5 11V15H14.5V11H10.5ZM1.755 9.5L-0.517763 6.20841L-11.078 13.5H1.755V9.5ZM8.745 9.5V13.5H21.578L11.0178 6.20841L8.745 9.5ZM10.53 7.1075L10.9664 3.13138L-4.05807 1.48235L8.18396 10.3473L10.53 7.1075ZM12 11H8V15H12V11ZM15 11V15H19V11H15ZM8.625 0.7625L6.89918 -2.84604L2.61896 -0.798974L5.36018 3.07355L8.625 0.7625ZM8.625 5.4875L5.36018 3.17645L2.61896 7.04897L6.89918 9.09604L8.625 5.4875ZM5.25 3.0625C3.87395 3.0625 2.05578 3.37518 0.479665 4.00644C-0.311506 4.32332 -1.29297 4.81882 -2.14069 5.60191C-3.01621 6.41068 -4 7.78386 -4 9.6875H4C4 10.7174 3.45309 11.3256 3.28772 11.4783C3.15016 11.6054 3.15213 11.5539 3.45408 11.4329C3.71886 11.3269 4.06612 11.2272 4.43874 11.1561C4.81804 11.0837 5.11055 11.0625 5.25 11.0625V3.0625ZM-4 9.6875V11H4V9.6875H-4ZM0 15H10.5V7H0V15ZM14.5 11V9.6875H6.5V11H14.5ZM14.5 9.6875C14.5 7.78386 13.5162 6.41068 12.6407 5.60191C11.793 4.81882 10.8115 4.32332 10.0203 4.00644C8.44422 3.37518 6.62605 3.0625 5.25 3.0625V11.0625C5.38945 11.0625 5.68196 11.0837 6.06126 11.1561C6.43388 11.2272 6.78114 11.3269 7.04592 11.4329C7.34787 11.5539 7.34984 11.6054 7.21228 11.4783C7.04691 11.3256 6.5 10.7174 6.5 9.6875H14.5ZM4.02776 12.7916C3.89542 12.883 3.85187 12.8903 3.95562 12.8458C4.03887 12.8101 4.17041 12.7612 4.33875 12.7129C4.69978 12.6093 5.03744 12.5625 5.25 12.5625V4.5625C4.12006 4.5625 3.02522 4.76695 2.13187 5.02333C1.29815 5.26261 0.298623 5.64472 -0.517763 6.20841L4.02776 12.7916ZM5.25 12.5625C5.46256 12.5625 5.80022 12.6093 6.16125 12.7129C6.32959 12.7612 6.46113 12.8101 6.54438 12.8458C6.64813 12.8903 6.60458 12.883 6.47224 12.7916L11.0178 6.20841C10.2014 5.64472 9.20185 5.26261 8.36813 5.02333C7.47478 4.76695 6.37994 4.5625 5.25 4.5625V12.5625ZM8.745 5.5H1.755V13.5H8.745V5.5ZM5.25 9.75C8.90664 9.75 11.875 6.78164 11.875 3.125H3.875C3.875 2.36336 4.48836 1.75 5.25 1.75V9.75ZM11.875 3.125C11.875 -0.531639 8.90664 -3.5 5.25 -3.5V4.5C4.48836 4.5 3.875 3.88664 3.875 3.125H11.875ZM5.25 -3.5C1.59336 -3.5 -1.375 -0.531639 -1.375 3.125H6.625C6.625 3.88664 6.01164 4.5 5.25 4.5V-3.5ZM-1.375 3.125C-1.375 6.78164 1.59336 9.75 5.25 9.75V1.75C6.01164 1.75 6.625 2.36336 6.625 3.125H-1.375ZM5.25 6C3.66336 6 2.375 4.71164 2.375 3.125H10.375C10.375 0.293361 8.08164 -2 5.25 -2V6ZM2.375 3.125C2.375 1.53836 3.66336 0.25 5.25 0.25V8.25C8.08164 8.25 10.375 5.95664 10.375 3.125H2.375ZM5.25 0.25C6.83664 0.25 8.125 1.53836 8.125 3.125H0.125C0.125 5.95664 2.41836 8.25 5.25 8.25V0.25ZM8.125 3.125C8.125 4.71164 6.83664 6 5.25 6V-2C2.41836 -2 0.125 0.293361 0.125 3.125H8.125ZM8.18396 10.3473C8.30009 10.4314 8.25218 10.4257 8.16925 10.2887C8.1255 10.2164 8.07966 10.1195 8.04628 10.0026C8.0126 9.88459 8 9.77543 8 9.6875H16C16 6.89317 14.41 4.97852 12.876 3.86773L8.18396 10.3473ZM8 9.6875V11H16V9.6875H8ZM12 15H15V7H12V15ZM19 11V9.6875H11V11H19ZM19 9.6875C19 6.40225 16.257 4.81798 15.203 4.30655C13.7987 3.62519 12.2103 3.2679 10.9664 3.13138L10.0936 11.0836C10.361 11.113 10.6767 11.1692 10.989 11.2514C11.3077 11.3352 11.5536 11.4278 11.7108 11.5041C11.896 11.5939 11.8071 11.5871 11.6253 11.3906C11.4066 11.1543 11 10.5654 11 9.6875H19ZM9.75 9.75C13.4066 9.75 16.375 6.78164 16.375 3.125H8.375C8.375 2.36336 8.98836 1.75 9.75 1.75V9.75ZM16.375 3.125C16.375 -0.531639 13.4066 -3.5 9.75 -3.5V4.5C8.98836 4.5 8.375 3.88664 8.375 3.125H16.375ZM9.75 -3.5C8.68128 -3.5 7.71968 -3.23845 6.89918 -2.84604L10.3508 4.37104C10.2203 4.43345 10.0087 4.5 9.75 4.5V-3.5ZM5.36018 3.07355C5.36508 3.08047 5.36867 3.0878 5.37095 3.09485C5.37285 3.10075 5.375 3.10978 5.375 3.125H13.375C13.375 1.39445 12.8259 -0.226191 11.8898 -1.54855L5.36018 3.07355ZM5.375 3.125C5.375 3.14022 5.37285 3.14925 5.37095 3.15515C5.36867 3.1622 5.36508 3.16952 5.36018 3.17645L11.8898 7.79855C12.8259 6.47619 13.375 4.85555 13.375 3.125H5.375ZM6.89918 9.09604C7.71968 9.48845 8.68128 9.75 9.75 9.75V1.75C10.0087 1.75 10.2203 1.81655 10.3508 1.87896L6.89918 9.09604Z" fill="#E6EBFF" mask="url(#path-1-inside-1_326_6278)"/>
<path d="M0 11H-4V15H0V11ZM10.5 11V15H14.5V11H10.5ZM1.755 9.5L-0.517763 6.20841L-11.078 13.5H1.755V9.5ZM8.745 9.5V13.5H21.578L11.0178 6.20841L8.745 9.5ZM10.53 7.1075L10.9664 3.13138L-4.05807 1.48235L8.18396 10.3473L10.53 7.1075ZM12 11H8V15H12V11ZM15 11V15H19V11H15ZM8.625 0.7625L6.89918 -2.84604L2.61896 -0.798974L5.36018 3.07355L8.625 0.7625ZM8.625 5.4875L5.36018 3.17645L2.61896 7.04897L6.89918 9.09604L8.625 5.4875ZM5.25 3.0625C3.87395 3.0625 2.05578 3.37518 0.479665 4.00644C-0.311506 4.32332 -1.29297 4.81882 -2.14069 5.60191C-3.01621 6.41068 -4 7.78386 -4 9.6875H4C4 10.7174 3.45309 11.3256 3.28772 11.4783C3.15016 11.6054 3.15213 11.5539 3.45408 11.4329C3.71886 11.3269 4.06612 11.2272 4.43874 11.1561C4.81804 11.0837 5.11055 11.0625 5.25 11.0625V3.0625ZM-4 9.6875V11H4V9.6875H-4ZM0 15H10.5V7H0V15ZM14.5 11V9.6875H6.5V11H14.5ZM14.5 9.6875C14.5 7.78386 13.5162 6.41068 12.6407 5.60191C11.793 4.81882 10.8115 4.32332 10.0203 4.00644C8.44422 3.37518 6.62605 3.0625 5.25 3.0625V11.0625C5.38945 11.0625 5.68196 11.0837 6.06126 11.1561C6.43388 11.2272 6.78114 11.3269 7.04592 11.4329C7.34787 11.5539 7.34984 11.6054 7.21228 11.4783C7.04691 11.3256 6.5 10.7174 6.5 9.6875H14.5ZM4.02776 12.7916C3.89542 12.883 3.85187 12.8903 3.95562 12.8458C4.03887 12.8101 4.17041 12.7612 4.33875 12.7129C4.69978 12.6093 5.03744 12.5625 5.25 12.5625V4.5625C4.12006 4.5625 3.02522 4.76695 2.13187 5.02333C1.29815 5.26261 0.298623 5.64472 -0.517763 6.20841L4.02776 12.7916ZM5.25 12.5625C5.46256 12.5625 5.80022 12.6093 6.16125 12.7129C6.32959 12.7612 6.46113 12.8101 6.54438 12.8458C6.64813 12.8903 6.60458 12.883 6.47224 12.7916L11.0178 6.20841C10.2014 5.64472 9.20185 5.26261 8.36813 5.02333C7.47478 4.76695 6.37994 4.5625 5.25 4.5625V12.5625ZM8.745 5.5H1.755V13.5H8.745V5.5ZM5.25 9.75C8.90664 9.75 11.875 6.78164 11.875 3.125H3.875C3.875 2.36336 4.48836 1.75 5.25 1.75V9.75ZM11.875 3.125C11.875 -0.531639 8.90664 -3.5 5.25 -3.5V4.5C4.48836 4.5 3.875 3.88664 3.875 3.125H11.875ZM5.25 -3.5C1.59336 -3.5 -1.375 -0.531639 -1.375 3.125H6.625C6.625 3.88664 6.01164 4.5 5.25 4.5V-3.5ZM-1.375 3.125C-1.375 6.78164 1.59336 9.75 5.25 9.75V1.75C6.01164 1.75 6.625 2.36336 6.625 3.125H-1.375ZM5.25 6C3.66336 6 2.375 4.71164 2.375 3.125H10.375C10.375 0.293361 8.08164 -2 5.25 -2V6ZM2.375 3.125C2.375 1.53836 3.66336 0.25 5.25 0.25V8.25C8.08164 8.25 10.375 5.95664 10.375 3.125H2.375ZM5.25 0.25C6.83664 0.25 8.125 1.53836 8.125 3.125H0.125C0.125 5.95664 2.41836 8.25 5.25 8.25V0.25ZM8.125 3.125C8.125 4.71164 6.83664 6 5.25 6V-2C2.41836 -2 0.125 0.293361 0.125 3.125H8.125ZM8.18396 10.3473C8.30009 10.4314 8.25218 10.4257 8.16925 10.2887C8.1255 10.2164 8.07966 10.1195 8.04628 10.0026C8.0126 9.88459 8 9.77543 8 9.6875H16C16 6.89317 14.41 4.97852 12.876 3.86773L8.18396 10.3473ZM8 9.6875V11H16V9.6875H8ZM12 15H15V7H12V15ZM19 11V9.6875H11V11H19ZM19 9.6875C19 6.40225 16.257 4.81798 15.203 4.30655C13.7987 3.62519 12.2103 3.2679 10.9664 3.13138L10.0936 11.0836C10.361 11.113 10.6767 11.1692 10.989 11.2514C11.3077 11.3352 11.5536 11.4278 11.7108 11.5041C11.896 11.5939 11.8071 11.5871 11.6253 11.3906C11.4066 11.1543 11 10.5654 11 9.6875H19ZM9.75 9.75C13.4066 9.75 16.375 6.78164 16.375 3.125H8.375C8.375 2.36336 8.98836 1.75 9.75 1.75V9.75ZM16.375 3.125C16.375 -0.531639 13.4066 -3.5 9.75 -3.5V4.5C8.98836 4.5 8.375 3.88664 8.375 3.125H16.375ZM9.75 -3.5C8.68128 -3.5 7.71968 -3.23845 6.89918 -2.84604L10.3508 4.37104C10.2203 4.43345 10.0087 4.5 9.75 4.5V-3.5ZM5.36018 3.07355C5.36508 3.08047 5.36867 3.0878 5.37095 3.09485C5.37285 3.10075 5.375 3.10978 5.375 3.125H13.375C13.375 1.39445 12.8259 -0.226191 11.8898 -1.54855L5.36018 3.07355ZM5.375 3.125C5.375 3.14022 5.37285 3.14925 5.37095 3.15515C5.36867 3.1622 5.36508 3.16952 5.36018 3.17645L11.8898 7.79855C12.8259 6.47619 13.375 4.85555 13.375 3.125H5.375ZM6.89918 9.09604C7.71968 9.48845 8.68128 9.75 9.75 9.75V1.75C10.0087 1.75 10.2203 1.81655 10.3508 1.87896L6.89918 9.09604Z" fill="#E0D8FF" mask="url(#path-1-inside-1_326_6278)"/>
</svg>
